<svg width="24" height="25" viewBox="0 0 24 25" fill="none" xmlns="http://www.w3.org/2000/svg">
<path d="M9.15826 6.21223L8.7556 5.30625C8.49232 4.71388 8.36068 4.41768 8.16381 4.19101C7.91708 3.90694 7.59547 3.69794 7.23568 3.58785C6.94859 3.5 6.62446 3.5 5.97621 3.5C5.02791 3.5 4.55376 3.5 4.15573 3.68229C3.68687 3.89702 3.26344 4.36328 3.09473 4.8506C2.95151 5.26429 2.99254 5.68943 3.07458 6.5397C3.94791 15.5902 8.90982 20.5521 17.9603 21.4254C18.8106 21.5075 19.2358 21.5485 19.6494 21.4053C20.1368 21.2366 20.603 20.8131 20.8178 20.3443C21 19.9462 21 19.4721 21 18.5238C21 17.8755 21 17.5514 20.9122 17.2643C20.8021 16.9045 20.5931 16.5829 20.309 16.3362C20.0824 16.1393 19.7862 16.0077 19.1938 15.7444L18.2878 15.3417C17.6463 15.0566 17.3255 14.9141 16.9996 14.8831C16.6876 14.8534 16.3731 14.8972 16.0811 15.0109C15.776 15.1297 15.5064 15.3544 14.967 15.8038C14.4302 16.2512 14.1618 16.4749 13.8338 16.5947C13.543 16.7009 13.1586 16.7403 12.8524 16.6951C12.5069 16.6442 12.2424 16.5029 11.7133 16.2201C10.0673 15.3405 9.15953 14.4328 8.27987 12.7867C7.99714 12.2577 7.85578 11.9931 7.80487 11.6477C7.75974 11.3414 7.79908 10.957 7.9053 10.6663C8.02512 10.3383 8.24881 10.0699 8.69619 9.533C9.14562 8.99368 9.37034 8.72402 9.48915 8.41891C9.60285 8.12694 9.64662 7.8124 9.61695 7.50048C9.58594 7.17452 9.44338 6.85376 9.15826 6.21223Z" stroke="#111111" stroke-width="1.5" stroke-linecap="round"/>
</svg>
