<svg width="24" height="25" viewBox="0 0 24 25" fill="none" xmlns="http://www.w3.org/2000/svg">
<path d="M14.5 9.5C14.5 10.8807 13.3807 12 12 12C10.6193 12 9.5 10.8807 9.5 9.5C9.5 8.11929 10.6193 7 12 7C13.3807 7 14.5 8.11929 14.5 9.5Z" stroke="#111111" stroke-width="1.5"/>
<path d="M13.2574 17.9936C12.9201 18.3184 12.4693 18.5 12.0002 18.5C11.531 18.5 11.0802 18.3184 10.7429 17.9936C7.6543 15.0008 3.51519 11.6575 5.53371 6.80373C6.6251 4.17932 9.24494 2.5 12.0002 2.5C14.7554 2.5 17.3752 4.17933 18.4666 6.80373C20.4826 11.6514 16.3536 15.0111 13.2574 17.9936Z" stroke="#111111" stroke-width="1.5"/>
<path d="M18 20.5C18 21.6046 15.3137 22.5 12 22.5C8.68629 22.5 6 21.6046 6 20.5" stroke="#111111" stroke-width="1.5" stroke-linecap="round"/>
</svg>
