<svg width="80" height="80" viewBox="0 0 80 80" fill="none" xmlns="http://www.w3.org/2000/svg">
<g clip-path="url(#clip0_361_238)">
<mask id="mask0_361_238" style="mask-type:luminance" maskUnits="userSpaceOnUse" x="0" y="0" width="80" height="80">
<path d="M80 0H0V80H80V0Z" fill="white"/>
</mask>
<g mask="url(#mask0_361_238)">
<path d="M77.1013 72.3478V7.65218C77.1013 4.98551 75.0143 2.89856 72.3477 2.89856H7.65206C4.98539 2.89856 2.89844 4.98551 2.89844 7.65218V72.3478C2.89844 75.0145 4.98539 77.1014 7.65206 77.1014H72.3477C75.0143 77.1014 77.1013 75.0145 77.1013 72.3478Z" stroke="#016492" stroke-width="5" stroke-miterlimit="10" stroke-linecap="round"/>
<path d="M5.2168 20.5217H74.782" stroke="#016492" stroke-width="5" stroke-miterlimit="10" stroke-linecap="round"/>
<path d="M13.7968 14.4927C15.2055 14.4927 16.3475 13.3507 16.3475 11.942C16.3475 10.5332 15.2055 9.39124 13.7968 9.39124C12.3881 9.39124 11.2461 10.5332 11.2461 11.942C11.2461 13.3507 12.3881 14.4927 13.7968 14.4927Z" fill="#016492"/>
<path d="M23.0722 14.4927C24.4809 14.4927 25.6229 13.3507 25.6229 11.942C25.6229 10.5332 24.4809 9.39124 23.0722 9.39124C21.6635 9.39124 20.5215 10.5332 20.5215 11.942C20.5215 13.3507 21.6635 14.4927 23.0722 14.4927Z" fill="#016492"/>
<path d="M20.1739 35.4784C20.4058 34.5508 21.4493 34.3189 22.1449 34.8987L26.4348 39.1885H29.7971V35.9421L25.5073 31.6523C24.8116 30.9567 25.1594 29.9131 26.087 29.6813C28.1739 29.2175 31.4203 29.2175 34.087 31.7682C36.2898 33.9711 37.1014 37.3335 36.058 40.3479L49.2754 53.5653C52.2898 52.5218 55.6522 53.2175 57.8551 55.5363C60.4058 58.087 60.5217 61.4494 60.058 63.5363C59.8261 64.4638 58.7826 64.6958 58.087 64.116L53.7971 59.8262H50.4348V63.1885L54.7246 67.4784C55.4203 68.174 55.0724 69.2175 54.1449 69.4494C52.058 69.9131 48.8116 69.9131 46.1449 67.3624C43.942 65.1595 43.1304 61.7972 44.1739 58.7828L30.8405 45.3335C27.8261 46.3769 24.4637 45.6813 22.2609 43.3624C19.8261 40.9277 19.5942 37.5653 20.1739 35.4784Z" fill="#016492"/>
<path d="M39.9998 57.8551L29.9129 67.9421C27.9418 69.9131 24.8114 70.261 22.4925 68.6378L31.5361 59.5943C31.9998 59.1305 31.9998 58.4349 31.5361 57.9711C31.0722 57.5073 30.3766 57.5073 29.9129 57.9711L20.8693 67.0146C19.3622 64.6958 19.594 61.5653 21.565 59.5943L31.652 49.5073L39.9998 57.8551Z" fill="#016492"/>
<path d="M59.9419 32.8116L56.6956 39.4203C56.5797 39.7681 56.2318 40 55.768 40.1159L50.3188 40.9275L44.9855 46.2609L43.3623 44.6377L48.6956 39.3044L49.5072 33.8551C49.5072 33.5073 49.855 33.1595 50.2029 32.9275L56.8116 29.5652C57.2753 29.3334 57.855 29.4493 58.2028 29.7971L59.826 31.4203C60.1738 31.7681 60.1739 32.3478 59.9419 32.8116Z" fill="#016492"/>
</g>
</g>
<defs>
<clipPath id="clip0_361_238">
<rect width="80" height="80" fill="white"/>
</clipPath>
</defs>
</svg>
