<svg width="80" height="80" viewBox="0 0 80 80" fill="none" xmlns="http://www.w3.org/2000/svg">
<g clip-path="url(#clip0_361_280)">
<mask id="mask0_361_280" style="mask-type:luminance" maskUnits="userSpaceOnUse" x="0" y="0" width="80" height="80">
<path d="M80 0H0V80H80V0Z" fill="white"/>
</mask>
<g mask="url(#mask0_361_280)">
<path d="M77.1015 54.261V6.37694C77.1015 4.40593 75.5942 2.89868 73.7391 2.89868H28.6378C26.7827 2.89868 25.2754 4.52186 25.2754 6.37694V54.261C25.2754 56.232 26.7827 57.7393 28.6378 57.7393H73.7391C75.5942 57.7393 77.1015 56.232 77.1015 54.261Z" stroke="#016492" stroke-width="5" stroke-miterlimit="10" stroke-linecap="round"/>
<path d="M60.6376 60.5217V67.2464C60.6376 69.2174 59.1304 70.7246 57.2753 70.7246H12.1738C10.3188 70.7246 8.81152 69.1015 8.81152 67.2464V19.4783C8.81152 17.5072 10.3188 16 12.1738 16H26.8985" stroke="#016492" stroke-width="5" stroke-miterlimit="10" stroke-linecap="round"/>
<path d="M26.8984 15.8843H75.4782" stroke="#016492" stroke-width="5" stroke-miterlimit="10" stroke-linecap="round"/>
<path d="M32.9274 11.5944C33.9519 11.5944 34.7824 10.712 34.7824 9.62333C34.7824 8.5348 33.9519 7.65234 32.9274 7.65234C31.9028 7.65234 31.0723 8.5348 31.0723 9.62333C31.0723 10.712 31.9028 11.5944 32.9274 11.5944Z" fill="#016492"/>
<path d="M39.4205 11.5944C40.4451 11.5944 41.2756 10.712 41.2756 9.62333C41.2756 8.5348 40.4451 7.65234 39.4205 7.65234C38.396 7.65234 37.5654 8.5348 37.5654 9.62333C37.5654 10.712 38.396 11.5944 39.4205 11.5944Z" fill="#016492"/>
<path d="M2.89844 35.3625L8.11583 30.9567C8.5796 30.6088 9.15935 30.6088 9.62307 30.9567L14.8404 35.4785" stroke="#016492" stroke-width="5" stroke-miterlimit="10" stroke-linecap="round"/>
<path d="M22.7248 77.1015L18.5509 71.5363C18.2031 71.0725 18.2031 70.4928 18.5509 70.029L22.8407 64.4639" stroke="#016492" stroke-width="5" stroke-miterlimit="10" stroke-linecap="round"/>
<path d="M38.8408 36.8696C38.8408 42.203 41.9713 46.8406 46.3771 49.0435L40.0003 31.4204C39.1886 33.0435 38.8408 34.8986 38.8408 36.8696ZM61.3336 36.174C61.3336 34.5508 60.7539 33.3914 60.1742 32.4638C59.4785 31.3044 58.8988 30.3769 58.8988 29.3334C58.8988 28.058 59.8264 26.8986 61.1017 26.8986C61.2176 26.8986 61.2176 26.8986 61.3336 26.8986C58.8988 24.6957 55.7684 23.3044 52.2901 23.3044C47.5365 23.3044 43.4785 25.7392 41.0437 29.3334C41.3915 29.3334 41.6235 29.3334 41.8554 29.3334C43.2466 29.3334 45.4495 29.2174 45.4495 29.2174C46.1452 29.2174 46.2612 30.2609 45.5655 30.3769C45.5655 30.3769 44.8698 30.4928 44.0583 30.4928L48.9278 45.1015L51.8264 36.2899L49.7394 30.4928C49.0437 30.4928 48.3481 30.3769 48.3481 30.3769C47.6525 30.3769 47.6525 29.2174 48.464 29.2174C48.464 29.2174 50.6669 29.3334 52.0583 29.3334C53.4495 29.3334 55.6525 29.2174 55.6525 29.2174C56.3481 29.2174 56.464 30.2609 55.7684 30.3769C55.7684 30.3769 55.0727 30.4928 54.2612 30.4928L59.1307 44.9855L60.522 40.5798C60.9858 38.7247 61.3336 37.3334 61.3336 36.174ZM52.522 38.0291L48.464 49.7392C49.6235 50.087 50.8988 50.3189 52.2901 50.3189C53.9133 50.3189 55.3046 50.087 56.8119 49.5074C56.8119 49.5074 56.6959 49.3914 56.6959 49.2754L52.522 38.0291ZM64.1162 30.3769C64.1162 30.8406 64.2322 31.3044 64.2322 31.7682C64.2322 33.1594 64.0003 34.6667 63.1886 36.6377L59.1307 48.5798C63.1886 46.2609 65.8554 41.8552 65.8554 36.9855C65.7394 34.5508 65.1597 32.3479 64.1162 30.3769Z" fill="#016492"/>
</g>
</g>
<defs>
<clipPath id="clip0_361_280">
<rect width="80" height="80" fill="white"/>
</clipPath>
</defs>
</svg>
