<svg width="80" height="80" viewBox="0 0 80 80" fill="none" xmlns="http://www.w3.org/2000/svg">
<mask id="mask0_361_279" style="mask-type:luminance" maskUnits="userSpaceOnUse" x="0" y="0" width="80" height="80">
<path d="M80 0H0V80H80V0Z" fill="white"/>
</mask>
<g mask="url(#mask0_361_279)">
<path d="M77.1013 39.1886V7.53635C77.1013 4.98564 75.0144 2.89868 72.3477 2.89868H7.65206C4.98539 2.89868 2.89844 4.98564 2.89844 7.53635V70.8407C2.89844 73.3914 4.98539 75.4784 7.65206 75.4784H29.2172" stroke="#016492" stroke-width="5" stroke-miterlimit="10" stroke-linecap="round"/>
<path d="M5.2168 20.1741H74.782" stroke="#016492" stroke-width="5" stroke-miterlimit="10" stroke-linecap="round"/>
<path d="M13.7968 14.2611C15.2055 14.2611 16.3475 13.1191 16.3475 11.7104C16.3475 10.3017 15.2055 9.15967 13.7968 9.15967C12.3881 9.15967 11.2461 10.3017 11.2461 11.7104C11.2461 13.1191 12.3881 14.2611 13.7968 14.2611Z" fill="#016492"/>
<path d="M23.0722 14.2611C24.4809 14.2611 25.6229 13.1191 25.6229 11.7104C25.6229 10.3017 24.4809 9.15967 23.0722 9.15967C21.6635 9.15967 20.5215 10.3017 20.5215 11.7104C20.5215 13.1191 21.6635 14.2611 23.0722 14.2611Z" fill="#016492"/>
<path d="M30.6088 36.5218C27.0145 40.0001 27.0145 45.7972 30.6088 49.2755L34.7827 53.3335C35.2464 53.7972 35.9421 53.7972 36.4059 53.3335L47.8842 42.0871C48.3479 41.6233 48.3479 40.9276 47.8842 40.4639L43.7102 36.4059C40.116 32.9276 34.3189 32.9276 30.6088 36.5218Z" stroke="#016492" stroke-width="5" stroke-miterlimit="10" stroke-linecap="round"/>
<path d="M30.6086 36.5219L24.8115 30.7249" stroke="#016492" stroke-width="5" stroke-miterlimit="10" stroke-linecap="round"/>
<path d="M66.3185 71.4203C69.9127 67.9422 69.9127 62.145 66.3185 58.6668L62.1445 54.4929C61.6808 54.0291 60.9852 54.0291 60.5214 54.4929L49.0432 65.7392C48.5794 66.203 48.5794 66.8986 49.0432 67.3624L53.2171 71.4203C56.9272 74.8986 62.7243 74.8986 66.3185 71.4203Z" stroke="#016492" stroke-width="5" stroke-miterlimit="10" stroke-linecap="round"/>
<path d="M66.3184 71.4204L72.2315 77.1016" stroke="#016492" stroke-width="5" stroke-miterlimit="10" stroke-linecap="round"/>
<path d="M58.8985 56.232L53.4492 50.7827" stroke="#016492" stroke-width="5" stroke-miterlimit="10" stroke-linecap="round"/>
<path d="M52.1739 62.7247L46.7246 57.3914" stroke="#016492" stroke-width="5" stroke-miterlimit="10" stroke-linecap="round"/>
</g>
</svg>
