<svg width="80" height="80" viewBox="0 0 80 80" fill="none" xmlns="http://www.w3.org/2000/svg">
<g clip-path="url(#clip0_361_130)">
<mask id="mask0_361_130" style="mask-type:luminance" maskUnits="userSpaceOnUse" x="0" y="0" width="80" height="80">
<path d="M80 0H0V80H80V0Z" fill="white"/>
</mask>
<g mask="url(#mask0_361_130)">
<path fill-rule="evenodd" clip-rule="evenodd" d="M75.1886 50.1655H33.2036C30.557 50.1655 28.3916 52.2106 28.3916 54.8573V70.4963C28.3916 73.0227 30.557 75.1881 33.2036 75.1881H53.0532L62.1961 80.1204L60.151 75.0678H75.1886C77.8352 75.0678 80.0006 73.0227 80.0006 70.3761V54.737C80.0006 52.2106 77.8352 50.1655 75.1886 50.1655ZM32.3615 53.7745C31.8803 53.7745 31.3991 54.0152 31.0382 54.3761C30.6773 54.737 30.557 55.3384 30.6773 55.8197C31.8803 63.5189 33.0833 68.6919 34.1661 71.4588C34.527 72.4212 35.0081 72.9023 35.6096 72.9023C36.4517 72.7821 37.5344 71.6994 38.7374 69.2934C38.9781 68.8122 39.339 68.0903 39.6999 67.3685C40.3013 66.2858 40.9029 64.9625 41.745 63.3986C42.948 67.2483 44.3916 70.1354 46.4367 72.1805C47.0382 72.7821 47.5194 73.0227 48.1209 72.9023C48.6021 72.9023 49.0833 72.5414 49.2036 72.1805C49.4442 71.8197 49.4442 71.3384 49.4442 70.8573C49.3239 68.9324 49.5645 66.4062 50.0457 63.0377C50.527 59.549 51.2487 57.143 52.0909 55.5791C52.2111 55.3384 52.3314 54.9775 52.3314 54.6166C52.3314 54.1354 52.0909 53.6543 51.73 53.4136C51.3691 53.0527 50.8878 52.9324 50.4066 53.0527C49.8051 53.0527 49.3239 53.4136 48.9631 54.0152C47.6397 56.3009 46.7976 60.1505 46.1961 65.3234C45.354 63.0377 44.6321 60.752 44.151 58.346C43.9104 57.143 43.3089 56.5414 42.4668 56.6618C41.8652 56.6618 41.2638 57.143 40.9029 57.8648L36.3314 66.1655C35.6096 63.158 34.8878 59.549 34.1661 55.2182C34.0457 54.1354 33.4442 53.6543 32.3615 53.7745ZM63.1585 57.6242C62.4367 56.4212 61.2337 55.4588 59.7901 55.2182C59.4292 55.0979 59.0682 55.0979 58.5871 55.0979C56.542 55.0979 54.8578 56.1805 53.6548 58.2257C52.5721 59.9099 51.9705 61.955 51.9705 64.0002C51.9705 65.5641 52.3314 66.8873 52.933 68.0903C53.6548 69.2933 54.8578 70.2558 56.3013 70.4963C56.6622 70.6166 57.0231 70.6166 57.5043 70.6166C59.5495 70.6166 61.2337 69.534 62.4367 67.4888C63.5194 65.6843 64.1209 63.7595 64.1209 61.7144C64.1209 60.0302 63.76 58.7069 63.1585 57.6242ZM60.5119 63.2783C60.2712 64.6016 59.6698 65.6843 58.948 66.2858C58.3465 66.8873 57.745 67.0076 57.2638 67.0076C56.7826 66.8873 56.3013 66.4062 56.0608 65.6843C55.8201 65.0828 55.6999 64.4813 55.6999 63.7595C55.6999 63.2783 55.6999 62.7971 55.8202 62.3159C56.0608 61.4738 56.4217 60.6317 56.9029 59.9099C57.6247 58.9475 58.3465 58.4663 59.0682 58.7069C59.5495 58.8272 60.0307 59.3084 60.2712 60.0302C60.5119 60.6317 60.6322 61.2332 60.6322 61.8347C60.6322 62.3159 60.5119 62.7971 60.5119 63.2783ZM72.9029 55.2182C74.3465 55.4588 75.5495 56.3009 76.2713 57.6242C76.9931 58.7069 77.2337 60.0302 77.2337 61.5941C77.2337 63.6393 76.6321 65.6843 75.5495 67.3685C74.2261 69.4136 72.6622 70.4963 70.6171 70.4963C70.2562 70.4963 69.8953 70.4963 69.4141 70.3761C67.9705 70.1354 66.7675 69.2933 66.0457 67.9701C65.3239 66.8873 65.0833 65.4437 65.0833 63.8798C65.0833 61.8347 65.6848 59.7896 66.7675 58.1053C68.0909 56.0603 69.6548 54.9775 71.6999 54.9775C72.1811 55.0979 72.542 55.0979 72.9029 55.2182ZM72.0608 66.2858C72.9029 65.564 73.3841 64.6016 73.6247 63.2783C73.745 62.7971 73.745 62.3159 73.745 61.7144C73.745 61.1129 73.6247 60.5114 73.3841 59.9099C73.0232 59.0678 72.6622 58.7069 72.1811 58.5866C71.4592 58.4663 70.7374 58.8272 70.0156 59.7896C69.4142 60.5114 69.0532 61.3535 68.933 62.1956C68.8126 62.6768 68.8126 63.158 68.8126 63.6393C68.8126 64.2407 68.933 64.9625 69.1735 65.5641C69.5344 66.4062 69.8953 66.7671 70.3765 66.8873C70.8578 67.128 71.4592 66.8873 72.0608 66.2858Z" fill="#016492"/>
<path d="M46.4364 41.3835V19.97C46.4364 17.3234 44.271 15.158 41.5041 15.158H7.94014C5.17322 15.158 3.00781 17.3234 3.00781 19.97V67.0076C3.00781 69.6542 5.17322 71.8196 7.94014 71.8196H20.3311" stroke="#016492" stroke-width="5" stroke-miterlimit="10" stroke-linecap="round"/>
<path d="M32.0007 15.1579H17.4443V10.2256C17.4443 6.25569 20.6924 3.00757 24.6623 3.00757C28.6322 3.00757 31.8804 6.25569 31.8804 10.2256V15.1579H32.0007Z" stroke="#016492" stroke-width="5" stroke-miterlimit="10" stroke-linecap="round"/>
<path d="M28.1504 29.594H37.8948" stroke="#016492" stroke-width="5" stroke-miterlimit="10" stroke-linecap="round"/>
<path d="M17.8044 32.4812C19.4654 32.4812 20.812 31.1886 20.812 29.5941C20.812 27.9995 19.4654 26.7068 17.8044 26.7068C16.1434 26.7068 14.7969 27.9995 14.7969 29.5941C14.7969 31.1886 16.1434 32.4812 17.8044 32.4812Z" fill="#016492"/>
<path d="M28.1504 41.3835H31.7595" stroke="#016492" stroke-width="5" stroke-miterlimit="10" stroke-linecap="round"/>
<path d="M17.8044 44.2708C19.4654 44.2708 20.812 42.9782 20.812 41.3835C20.812 39.789 19.4654 38.4963 17.8044 38.4963C16.1434 38.4963 14.7969 39.789 14.7969 41.3835C14.7969 42.9782 16.1434 44.2708 17.8044 44.2708Z" fill="#016492"/>
</g>
</g>
<defs>
<clipPath id="clip0_361_130">
<rect width="80" height="80" fill="white"/>
</clipPath>
</defs>
</svg>
