<svg width="80" height="80" viewBox="0 0 80 80" fill="none" xmlns="http://www.w3.org/2000/svg">
<g clip-path="url(#clip0_361_293)">
<mask id="mask0_361_293" style="mask-type:luminance" maskUnits="userSpaceOnUse" x="0" y="0" width="80" height="80">
<path d="M80 0H0V80H80V0Z" fill="white"/>
</mask>
<g mask="url(#mask0_361_293)">
<path d="M31.0718 50.6467C30.2603 49.8046 28.9849 49.8046 28.1733 50.6467L21.9124 57.0226C21.1008 57.8647 21.1008 59.1881 21.9124 60.0302L28.1733 66.4061C28.9849 67.2482 30.2603 67.2482 31.0718 66.4061C31.8834 65.564 31.8834 64.2407 31.0718 63.3985L26.3183 58.4662L31.0718 53.5339C31.8834 52.8121 31.8834 51.4888 31.0718 50.6467ZM51.8254 50.6467C51.0139 49.8046 49.7385 49.8046 48.9269 50.6467C48.1153 51.4888 48.1153 52.8121 48.9269 53.6542L53.6805 58.5865L48.9269 63.5189C48.3472 64.0001 48.1153 64.8422 48.3472 65.564C48.5791 66.2858 49.1588 66.8872 49.8544 67.1279C50.5501 67.3685 51.3617 67.1279 51.8254 66.5263L58.0863 60.1504C58.8979 59.3083 58.8979 57.9851 58.0863 57.1429L51.8254 50.6467ZM42.782 50.1655C41.7385 49.8046 40.4632 50.4061 40.1153 51.4888L35.9414 64.2407C35.5936 65.3233 36.1733 66.5263 37.2168 66.8872C38.2603 67.2482 39.5356 66.6467 39.8834 65.564L44.0573 52.8121C44.1733 52.2106 44.1733 51.7294 43.9414 51.1279C43.7095 50.6467 43.2457 50.2858 42.782 50.1655Z" fill="#016492"/>
<path d="M77.1014 76.9924H2.89844" stroke="#016492" stroke-width="5" stroke-miterlimit="10" stroke-linecap="round"/>
<path d="M11.9416 76.9925H68.1735L73.9706 45.1129C73.9706 43.7895 72.9271 42.7068 71.6518 42.7068H8.46338C7.18801 42.7068 6.14453 43.7895 6.14453 45.1129L11.9416 76.9925Z" stroke="#016492" stroke-width="5" stroke-miterlimit="10" stroke-linecap="round"/>
<path d="M19.2461 42.7068C20.2896 37.4136 24.8114 33.564 30.2606 33.564H49.8548C55.1882 33.564 59.7099 37.5339 60.8694 42.7068" stroke="#016492" stroke-width="5" stroke-miterlimit="10" stroke-linecap="round"/>
<path d="M39.9995 0C33.1589 0 27.5938 5.77444 27.5938 12.8722V13.4737C27.5938 20.5715 33.1589 26.3458 39.9995 26.3458C46.8401 26.3458 52.4053 20.5715 52.4053 13.4737V12.8722C52.4053 5.77444 46.8401 0 39.9995 0Z" fill="#016492"/>
</g>
</g>
<defs>
<clipPath id="clip0_361_293">
<rect width="80" height="80" fill="white"/>
</clipPath>
</defs>
</svg>
