<svg width="80" height="80" viewBox="0 0 80 80" fill="none" xmlns="http://www.w3.org/2000/svg">
<g clip-path="url(#clip0_361_250)">
<mask id="mask0_361_250" style="mask-type:luminance" maskUnits="userSpaceOnUse" x="0" y="0" width="80" height="80">
<path d="M80 0H0V80H80V0Z" fill="white"/>
</mask>
<g mask="url(#mask0_361_250)">
<path d="M77.0242 40.0595V9.39078C77.0242 5.8247 74.167 2.9718 70.5956 2.9718H9.40517C5.8337 2.9718 2.97656 5.8247 2.97656 9.39078V70.7282C2.97656 74.2942 5.8337 77.1471 9.40517 77.1471H36.0718" stroke="#016492" stroke-width="5" stroke-miterlimit="10" stroke-linecap="round"/>
<path d="M5.23828 20.5647H74.7621" stroke="#016492" stroke-width="5" stroke-miterlimit="10" stroke-linecap="round"/>
<path d="M13.8094 14.6211C15.2559 14.6211 16.4285 13.4502 16.4285 12.0059C16.4285 10.5617 15.2559 9.39075 13.8094 9.39075C12.363 9.39075 11.1904 10.5617 11.1904 12.0059C11.1904 13.4502 12.363 14.6211 13.8094 14.6211Z" fill="#016492"/>
<path d="M23.0957 14.6211C24.5421 14.6211 25.7147 13.4502 25.7147 12.0059C25.7147 10.5617 24.5421 9.39075 23.0957 9.39075C21.6492 9.39075 20.4766 10.5617 20.4766 12.0059C20.4766 13.4502 21.6492 14.6211 23.0957 14.6211Z" fill="#016492"/>
<path d="M12.3809 32.8083L21.4285 42.6746L12.3809 52.5409C12.3809 52.422 12.3809 52.422 12.3809 52.3032V32.8083Z" fill="#016492"/>
<path d="M32.9766 29.9554L24.167 39.584L15.4766 29.9554H32.9766Z" fill="#016492"/>
<path d="M24.1672 45.8842L32.7385 55.1561H15.5957L24.1672 45.8842Z" fill="#016492"/>
<path d="M36.0721 32.8083V52.3032C36.0721 52.422 36.0721 52.5409 36.0721 52.6598L27.0244 42.6746L36.0721 32.8083Z" fill="#016492"/>
<path d="M78.4524 58.8411L74.5238 57.8901C74.2857 57.1769 73.9285 56.4636 73.5715 55.7504C74.1666 54.7994 75.3572 52.6598 75.3572 52.6598C75.5953 52.3032 75.4762 51.7088 75.2381 51.4711L72.381 48.6182C72.0238 48.2616 71.5476 48.2616 71.1905 48.4993L68.0953 50.2823C67.381 49.9258 66.6666 49.5692 65.9524 49.3314L65 45.4087C64.8809 44.9332 64.5238 44.6954 64.0476 44.6954H60C59.5238 44.6954 59.1666 45.0521 59.0476 45.4087C59.0476 45.4087 58.3334 48.1427 58.0953 49.3314C57.2619 49.5692 56.5476 49.9258 55.8334 50.2823L52.6191 48.3804C52.2619 48.1427 51.6666 48.2616 51.4285 48.4993L48.5715 51.3523C48.2143 51.7088 48.2143 52.1843 48.4524 52.5409L50.4762 55.8693C50.1191 56.4636 49.881 57.1769 49.6428 57.7713L45.7143 58.7222C45.2381 58.8411 45 59.1977 45 59.6732V63.7148C45 64.1902 45.3572 64.5469 45.7143 64.6657L49.6428 65.6167C49.881 66.3299 50.2381 67.162 50.5953 67.8752L48.8095 70.847C48.5715 71.2036 48.6905 71.798 48.9285 72.0357L51.7857 74.8886C52.1428 75.2453 52.6191 75.2453 52.9762 75.0075C52.9762 75.0075 55 73.8188 55.9524 73.2244C56.6666 73.5811 57.3809 73.9376 58.0953 74.1754L59.0476 78.0982C59.1666 78.5736 59.5238 78.8113 60 78.8113H64.0476C64.5238 78.8113 64.8809 78.4547 65 78.0982L65.9524 74.1754C66.7857 73.9376 67.5 73.5811 68.2143 73.2244C69.1666 73.8188 71.1905 75.0075 71.1905 75.0075C71.5476 75.2453 72.1428 75.1263 72.381 74.8886L75.2381 72.0357C75.5953 71.6791 75.5953 71.2036 75.3572 70.847L73.5715 67.8752C73.9285 67.162 74.2857 66.4488 74.4047 65.7355L78.3334 64.7846C78.8095 64.6657 79.0476 64.3092 79.0476 63.8336V59.7921C79.1666 59.3165 78.8095 58.96 78.4524 58.8411ZM61.9047 68.8263C57.9762 68.8263 54.8809 65.6167 54.8809 61.8128C54.8809 57.8901 58.0953 54.7994 61.9047 54.7994C65.8334 54.7994 68.9285 58.009 68.9285 61.8128C69.0476 65.7355 65.8334 68.8263 61.9047 68.8263Z" fill="#016492"/>
<path d="M15.834 63.358H32.6197" stroke="#016492" stroke-width="5" stroke-miterlimit="10" stroke-linecap="round"/>
</g>
</g>
<defs>
<clipPath id="clip0_361_250">
<rect width="80" height="80" fill="white"/>
</clipPath>
</defs>
</svg>
